<?xml version="1.0"?>
<svg xmlns="http://www.w3.org/2000/svg" xmlns:xlink="http://www.w3.org/1999/xlink" version="1.1" id="Capa_1" x="0px" y="0px" viewBox="0 0 512 512" style="enable-background:new 0 0 512 512;" xml:space="preserve" width="512px" height="512px" class=""><g><path d="M437,0H75C33.645,0,0,33.645,0,75v362c0,41.355,33.645,75,75,75h362c41.355,0,75-33.645,75-75V75  C512,33.645,478.355,0,437,0z M106.176,446.374c-24.293,0-44.057-19.764-44.057-44.056c0-24.293,19.764-44.057,44.057-44.057  s44.057,19.764,44.057,44.057C150.232,426.61,130.469,446.374,106.176,446.374z M255.212,438.281c-22.056,0-40-17.944-40-40  c0-57.898-47.103-105-105-105c-22.056,0-40-17.944-40-40c0-22.056,17.944-40,40-40c102.009,0,185,82.99,185,185  C295.212,420.337,277.269,438.281,255.212,438.281z M405.212,438.281c-22.056,0-40-17.944-40-40  c0-68.112-26.524-132.148-74.688-180.313c-48.163-48.163-112.199-74.688-180.313-74.688c-22.056,0-40-17.944-40-40  c0-22.056,17.944-40,40-40c89.481,0,173.607,34.846,236.881,98.119c63.273,63.273,98.12,147.399,98.12,236.881  C445.212,420.337,427.269,438.281,405.212,438.281z" data-original="#000000" class="active-path" data-old_color="#000000" fill="#414141"/></g> </svg>
