<?xml version="1.0"?>
<svg xmlns="http://www.w3.org/2000/svg" xmlns:xlink="http://www.w3.org/1999/xlink" version="1.1" id="Capa_1" x="0px" y="0px" viewBox="0 0 512.005 512.005" style="enable-background:new 0 0 512.005 512.005;" xml:space="preserve" width="512px" height="512px" class=""><g><g>
	<g>
		<path d="M500.803,231.684l-224-192c-11.975-10.243-29.625-10.243-41.6,0l-224,192C-2.228,243.17-3.806,263.37,7.681,276.801    c6.08,7.11,14.967,11.203,24.323,11.203v160c0,17.673,14.327,32,32,32h384c17.673,0,32-14.327,32-32v-160    c17.673,0.001,32.001-14.324,32.002-31.998C512.006,246.651,507.913,237.764,500.803,231.684z M416.003,416.004h-320v-172.64    l160-137.28l160,137.12V416.004z" data-original="#000000" class="active-path" data-old_color="#000000" fill="#FFFFFF"/>
	</g>
</g><g>
	<g>
		<path d="M160.003,256.004c-17.673,0-32,14.327-32,32v16c0,17.673,14.327,32,32,32s32-14.327,32-32v-16    C192.003,270.331,177.676,256.004,160.003,256.004z" data-original="#000000" class="active-path" data-old_color="#000000" fill="#FFFFFF"/>
	</g>
</g><g>
	<g>
		<path d="M256.003,256.004c-17.673,0-32,14.327-32,32v16c0,17.673,14.327,32,32,32c17.673,0,32-14.327,32-32v-16    C288.003,270.331,273.676,256.004,256.003,256.004z" data-original="#000000" class="active-path" data-old_color="#000000" fill="#FFFFFF"/>
	</g>
</g><g>
	<g>
		<path d="M352.003,256.004c-17.673,0-32,14.327-32,32v64c0,17.673,14.327,32,32,32c17.673,0,32-14.327,32-32v-64    C384.003,270.331,369.676,256.004,352.003,256.004z" data-original="#000000" class="active-path" data-old_color="#000000" fill="#FFFFFF"/>
	</g>
</g></g> </svg>
