<?xml version="1.0"?>
<svg xmlns="http://www.w3.org/2000/svg" xmlns:xlink="http://www.w3.org/1999/xlink" version="1.1" id="Capa_1" x="0px" y="0px" viewBox="0 0 333.156 333.156" style="enable-background:new 0 0 333.156 333.156;" xml:space="preserve" width="512px" height="512px" class=""><g><g>
	<g>
		<path d="M268.689,166.578l43.6-75.6c2.8-4.8,1.2-10.8-3.6-13.6c-1.6-0.8-3.2-1.2-4.8-1.2h-87.2l-41.2-71.2c-0.8-1.6-2-2.8-3.6-3.6    c-4.8-2.8-10.8-1.2-13.6,3.6l-41.2,71.2h-87.6c-5.6,0-10,4.4-10,10c0,2,0.8,4,1.6,5.6l43.6,74.8l-43.2,74.8    c-1.2,1.6-1.6,3.6-1.6,5.6c0,5.6,4.4,10,10,10h87.2l41.2,71.2c2.8,4.8,8.8,6.4,13.6,3.6c1.6-0.8,2.8-2.4,3.6-3.6l41.2-71.2h87.2    c1.6,0,3.6-0.4,4.8-1.2c4.8-2.8,6.4-8.8,3.6-13.6L268.689,166.578z M286.289,96.178l-29.2,50.4l-13.2-23.2l-16-27.2H286.289z     M166.689,29.778l26.8,46.4h-26.8h-26.8L166.689,29.778z M47.089,96.178h58.4l-16,27.2l-13.2,23.2L47.089,96.178z M47.089,236.978    L47.089,236.978l29.2-50.4l13.2,23.2l16,27.2H47.089z M166.689,303.378l-26.8-46.4h26.8h26.8L166.689,303.378z M205.089,236.978    h-38.4h-38.4l-21.6-37.2l-19.2-33.2l19.2-33.2l21.6-37.2h38.4h38.4l21.6,37.2l19.2,33.2l-19.2,33.2L205.089,236.978z     M227.889,236.978l16-27.2l13.2-23.2l29.2,50.4H227.889z" data-original="#000000" class="active-path" data-old_color="#000000" fill="#555555"/>
	</g>
</g></g> </svg>
